<mxfile host="app.diagrams.net" agent="Mozilla/5.0 (Macintosh; Intel Mac OS X 10_15_7) AppleWebKit/537.36 (KHTML, like Gecko) Chrome/138.0.0.0 Safari/537.36" version="28.0.4">
  <diagram name="Page-1" id="lRK7KFah8Zr57Gwfv87g">
    <mxGraphModel dx="1130" dy="833" grid="1" gridSize="10" guides="1" tooltips="1" connect="1" arrows="1" fold="1" page="1" pageScale="1" pageWidth="850" pageHeight="1100" math="0" shadow="0">
      <root>
        <mxCell id="0" />
        <mxCell id="1" parent="0" />
        <mxCell id="ehSKKSBy-C2Le2Ruavkk-5" value="" style="edgeStyle=orthogonalEdgeStyle;rounded=0;orthogonalLoop=1;jettySize=auto;html=1;" edge="1" parent="1" source="ehSKKSBy-C2Le2Ruavkk-1" target="ehSKKSBy-C2Le2Ruavkk-4">
          <mxGeometry relative="1" as="geometry" />
        </mxCell>
        <mxCell id="ehSKKSBy-C2Le2Ruavkk-1" value="Bắt đầu" style="ellipse;whiteSpace=wrap;html=1;" vertex="1" parent="1">
          <mxGeometry x="300" y="80" width="120" height="80" as="geometry" />
        </mxCell>
        <mxCell id="ehSKKSBy-C2Le2Ruavkk-2" value="Kết thúc" style="ellipse;whiteSpace=wrap;html=1;" vertex="1" parent="1">
          <mxGeometry x="300" y="670" width="120" height="80" as="geometry" />
        </mxCell>
        <mxCell id="ehSKKSBy-C2Le2Ruavkk-7" value="" style="edgeStyle=orthogonalEdgeStyle;rounded=0;orthogonalLoop=1;jettySize=auto;html=1;" edge="1" parent="1" source="ehSKKSBy-C2Le2Ruavkk-4" target="ehSKKSBy-C2Le2Ruavkk-6">
          <mxGeometry relative="1" as="geometry" />
        </mxCell>
        <mxCell id="ehSKKSBy-C2Le2Ruavkk-4" value="Nhập số n" style="shape=parallelogram;perimeter=parallelogramPerimeter;whiteSpace=wrap;html=1;fixedSize=1;" vertex="1" parent="1">
          <mxGeometry x="300" y="250" width="120" height="60" as="geometry" />
        </mxCell>
        <mxCell id="ehSKKSBy-C2Le2Ruavkk-9" value="" style="edgeStyle=orthogonalEdgeStyle;rounded=0;orthogonalLoop=1;jettySize=auto;html=1;" edge="1" parent="1" source="ehSKKSBy-C2Le2Ruavkk-6" target="ehSKKSBy-C2Le2Ruavkk-8">
          <mxGeometry relative="1" as="geometry" />
        </mxCell>
        <mxCell id="ehSKKSBy-C2Le2Ruavkk-12" value="" style="edgeStyle=orthogonalEdgeStyle;rounded=0;orthogonalLoop=1;jettySize=auto;html=1;" edge="1" parent="1" source="ehSKKSBy-C2Le2Ruavkk-6" target="ehSKKSBy-C2Le2Ruavkk-11">
          <mxGeometry relative="1" as="geometry" />
        </mxCell>
        <mxCell id="ehSKKSBy-C2Le2Ruavkk-6" value="n % 2 == 0" style="rhombus;whiteSpace=wrap;html=1;" vertex="1" parent="1">
          <mxGeometry x="320" y="380" width="80" height="80" as="geometry" />
        </mxCell>
        <mxCell id="ehSKKSBy-C2Le2Ruavkk-14" value="" style="edgeStyle=orthogonalEdgeStyle;rounded=0;orthogonalLoop=1;jettySize=auto;html=1;" edge="1" parent="1" source="ehSKKSBy-C2Le2Ruavkk-8" target="ehSKKSBy-C2Le2Ruavkk-2">
          <mxGeometry relative="1" as="geometry" />
        </mxCell>
        <mxCell id="ehSKKSBy-C2Le2Ruavkk-8" value="Là số chẵn" style="rounded=1;whiteSpace=wrap;html=1;" vertex="1" parent="1">
          <mxGeometry x="300" y="550" width="120" height="60" as="geometry" />
        </mxCell>
        <mxCell id="ehSKKSBy-C2Le2Ruavkk-10" value="Đúng" style="text;html=1;align=center;verticalAlign=middle;resizable=0;points=[];autosize=1;strokeColor=none;fillColor=none;" vertex="1" parent="1">
          <mxGeometry x="360" y="480" width="50" height="30" as="geometry" />
        </mxCell>
        <mxCell id="ehSKKSBy-C2Le2Ruavkk-22" value="" style="edgeStyle=orthogonalEdgeStyle;rounded=0;orthogonalLoop=1;jettySize=auto;html=1;" edge="1" parent="1" source="ehSKKSBy-C2Le2Ruavkk-11">
          <mxGeometry relative="1" as="geometry">
            <mxPoint x="420" y="710" as="targetPoint" />
            <Array as="points">
              <mxPoint x="560" y="710" />
            </Array>
          </mxGeometry>
        </mxCell>
        <mxCell id="ehSKKSBy-C2Le2Ruavkk-11" value="Là số lẻ" style="whiteSpace=wrap;html=1;" vertex="1" parent="1">
          <mxGeometry x="500" y="390" width="120" height="60" as="geometry" />
        </mxCell>
        <mxCell id="ehSKKSBy-C2Le2Ruavkk-13" value="Sai" style="text;html=1;align=center;verticalAlign=middle;resizable=0;points=[];autosize=1;strokeColor=none;fillColor=none;" vertex="1" parent="1">
          <mxGeometry x="420" y="390" width="40" height="30" as="geometry" />
        </mxCell>
      </root>
    </mxGraphModel>
  </diagram>
</mxfile>
